{
  "accessors": [
    {
      "bufferView": 2,
      "componentType": 5126,
      "count": 1641,
      "max": [
        0.028722334653139114,
        0.026684489101171494,
        0.0065277852118015289
      ],
      "min": [
        -0.013809319585561752,
        -0.023456502705812454,
        -0.0017747139791026711
      ],
      "type": "VEC3"
    },
    {
      "bufferView": 2,
      "byteOffset": 19692,
      "componentType": 5126,
      "count": 1641,
      "max": [
        0.99975359439849854,
        0.99998444318771362,
        1
      ],
      "min": [
        -0.99479681253433228,
        -0.99900466203689575,
        -1
      ],
      "type": "VEC3"
    },
    {
      "bufferView": 1,
      "componentType": 5126,
      "count": 1641,
      "max": [
        1.1063425540924072,
        1.0000001192092896
      ],
      "min": [
        0,
        0
      ],
      "type": "VEC2"
    },
    {
      "bufferView": 0,
      "componentType": 5125,
      "count": 7968,
      "max": [
        1640
      ],
      "min": [
        0
      ],
      "type": "SCALAR"
    },
    {
      "bufferView": 2,
      "byteOffset": 39384,
      "componentType": 5126,
      "count": 3709,
      "max": [
        0.096588671207427979,
        0.15726898610591888,
        0.76984071731567383
      ],
      "min": [
        -0.45931845903396606,
        -0.18698415160179138,
        0.042493343353271484
      ],
      "type": "VEC3"
    },
    {
      "bufferView": 2,
      "byteOffset": 83892,
      "componentType": 5126,
      "count": 3709,
      "max": [
        0.99997848272323608,
        0.99974185228347778,
        0.99979496002197266
      ],
      "min": [
        -0.99950867891311646,
        -0.99999147653579712,
        -0.99154245853424072
      ],
      "type": "VEC3"
    },
    {
      "bufferView": 1,
      "byteOffset": 13128,
      "componentType": 5126,
      "count": 3709,
      "max": [
        0.97222220897674561,
        1.0000003576278687
      ],
      "min": [
        -0.027777791023254395,
        0
      ],
      "type": "VEC2"
    },
    {
      "bufferView": 0,
      "byteOffset": 31872,
      "componentType": 5125,
      "count": 21408,
      "max": [
        3708
      ],
      "min": [
        0
      ],
      "type": "SCALAR"
    },
    {
      "bufferView": 2,
      "byteOffset": 128400,
      "componentType": 5126,
      "count": 287,
      "max": [
        -0.092461153864860535,
        0.083360962569713593,
        0.76044601202011108
      ],
      "min": [
        -0.23712176084518433,
        -0.1436227560043335,
        0.54068982601165771
      ],
      "type": "VEC3"
    },
    {
      "bufferView": 2,
      "byteOffset": 131844,
      "componentType": 5126,
      "count": 287,
      "max": [
        0.16597051918506622,
        0.9148445725440979,
        0.99986594915390015
      ],
      "min": [
        -0.99912935495376587,
        -0.99955993890762329,
        -0.77404040098190308
      ],
      "type": "VEC3"
    },
    {
      "bufferView": 1,
      "byteOffset": 42800,
      "componentType": 5126,
      "count": 287,
      "max": [
        1.0206699371337891,
        1.1743110418319702
      ],
      "min": [
        0.0045275688171386719,
        -0.2648625373840332
      ],
      "type": "VEC2"
    },
    {
      "bufferView": 0,
      "byteOffset": 117504,
      "componentType": 5125,
      "count": 1440,
      "max": [
        286
      ],
      "min": [
        0
      ],
      "type": "SCALAR"
    },
    {
      "bufferView": 3,
      "componentType": 5126,
      "count": 101,
      "max": [
        3.3333332538604736
      ],
      "min": [
        0
      ],
      "type": "SCALAR"
    },
    {
      "bufferView": 4,
      "componentType": 5126,
      "count": 101,
      "max": [
        0.70710676908493042,
        0.70710676908493042,
        0.70710676908493042,
        0.70710676908493042
      ],
      "min": [
        -0.48342552781105042,
        -0.5,
        -0.5,
        -0.48342552781105042
      ],
      "type": "VEC4"
    }
  ],
  "animations": [
    {
      "channels": [
        {
          "sampler": 0,
          "target": {
            "node": 5,
            "path": "rotation"
          }
        }
      ],
      "name": "Take 001",
      "samplers": [
        {
          "input": 12,
          "interpolation": "LINEAR",
          "output": 13
        }
      ]
    }
  ],
  "asset": {
    "extras": {
      "author": "binrong (https://sketchfab.com/binrong)",
      "license": "CC-BY-NC-4.0 (http://creativecommons.org/licenses/by-nc/4.0/)",
      "source": "https://sketchfab.com/3d-models/day16-fantasy-e79d50d401fc49789a3d6447fb9bb982",
      "title": "DAY16: FANTASY"
    },
    "generator": "Sketchfab-9.89.0",
    "version": "2.0"
  },
  "bufferViews": [
    {
      "buffer": 0,
      "byteLength": 123264,
      "byteOffset": 0,
      "name": "floatBufferViews",
      "target": 34963
    },
    {
      "buffer": 0,
      "byteLength": 45096,
      "byteOffset": 123264,
      "byteStride": 8,
      "name": "floatBufferViews",
      "target": 34962
    },
    {
      "buffer": 0,
      "byteLength": 135288,
      "byteOffset": 168360,
      "byteStride": 12,
      "name": "floatBufferViews",
      "target": 34962
    },
    {
      "buffer": 0,
      "byteLength": 404,
      "byteOffset": 303648,
      "name": "floatBufferViews"
    },
    {
      "buffer": 0,
      "byteLength": 1616,
      "byteOffset": 304052,
      "byteStride": 16,
      "name": "floatBufferViews"
    }
  ],
  "buffers": [
    {
      "byteLength": 305668,
      "uri": "scene.bin"
    }
  ],
  "images": [
    {
      "uri": "textures/Material_27_baseColor.png"
    }
  ],
  "materials": [
    {
      "doubleSided": true,
      "emissiveFactor": [
        1,
        0.18883043812344641,
        0.18883043812344641
      ],
      "name": "pink",
      "pbrMetallicRoughness": {
        "baseColorFactor": [
          0.99607800000000002,
          0.31764700000000001,
          0.42745100000000003,
          1
        ],
        "metallicFactor": 0,
        "roughnessFactor": 0
      }
    },
    {
      "doubleSided": true,
      "emissiveFactor": [
        0,
        0,
        0
      ],
      "name": "black",
      "pbrMetallicRoughness": {
        "baseColorFactor": [
          0,
          0,
          0,
          1
        ],
        "metallicFactor": 0,
        "roughnessFactor": 0.51628195881644656
      }
    },
    {
      "doubleSided": true,
      "emissiveFactor": [
        0,
        0,
        0
      ],
      "name": "Material_27",
      "pbrMetallicRoughness": {
        "baseColorFactor": [
          1,
          1,
          1,
          1
        ],
        "baseColorTexture": {
          "index": 0,
          "texCoord": 0
        },
        "metallicFactor": 0,
        "roughnessFactor": 0
      }
    }
  ],
  "meshes": [
    {
      "name": "heart_pink_0",
      "primitives": [
        {
          "attributes": {
            "NORMAL": 1,
            "POSITION": 0,
            "TEXCOORD_0": 2
          },
          "indices": 3,
          "material": 0,
          "mode": 4
        }
      ]
    },
    {
      "name": "body_black_0",
      "primitives": [
        {
          "attributes": {
            "NORMAL": 5,
            "POSITION": 4,
            "TEXCOORD_0": 6
          },
          "indices": 7,
          "material": 1,
          "mode": 4
        }
      ]
    },
    {
      "name": "body_Material #27_0",
      "primitives": [
        {
          "attributes": {
            "NORMAL": 9,
            "POSITION": 8,
            "TEXCOORD_0": 10
          },
          "indices": 11,
          "material": 2,
          "mode": 4
        }
      ]
    }
  ],
  "nodes": [
    {
      "children": [
        1
      ],
      "name": "RootNode (gltf orientation matrix)",
      "rotation": [
        -0.70710678118654746,
        -0,
        -0,
        0.70710678118654757
      ]
    },
    {
      "children": [
        2
      ],
      "matrix": [
        2.2204460492503131e-16,
        1,
        1.1102230246251565e-16,
        0,
        1,
        -2.2204460492503131e-16,
        4.9789963141979712e-17,
        0,
        4.9789963141979712e-17,
        1.1102230246251565e-16,
        -1,
        0,
        -42.533584594726562,
        41.487026214599609,
        -40.949234008789062,
        1
      ],
      "name": "RootNode (model correction matrix)"
    },
    {
      "children": [
        3
      ],
      "matrix": [
        1,
        0,
        0,
        0,
        0,
        -1,
        0,
        0,
        0,
        0,
        -1,
        0,
        0,
        0,
        0,
        1
      ],
      "name": "FANTASY.FBX"
    },
    {
      "children": [
        4
      ],
      "name": ""
    },
    {
      "children": [
        5,
        8
      ],
      "name": "RootNode"
    },
    {
      "children": [
        6
      ],
      "name": "heart",
      "rotation": [
        3.0908623216419073e-08,
        0.7071068286895752,
        0.7071068286895752,
        3.0908619663705394e-08
      ],
      "scale": [
        100,
        100,
        100
      ],
      "translation": [
        -60.064460754394531,
        -17.40272331237793,
        26.359033584594727
      ]
    },
    {
      "children": [
        7
      ],
      "matrix": [
        1,
        0,
        -0,
        0,
        0,
        1,
        0,
        0,
        0,
        0,
        1,
        0,
        -0.0059630870819091797,
        0.023249655961990402,
        0,
        1
      ],
      "name": ""
    },
    {
      "mesh": 0,
      "name": "heart_pink_0"
    },
    {
      "children": [
        9,
        10
      ],
      "name": "body",
      "rotation": [
        0,
        -0.34202015399932861,
        0,
        0.93969273567199707
      ],
      "scale": [
        100,
        100,
        100
      ]
    },
    {
      "mesh": 1,
      "name": "body_black_0"
    },
    {
      "mesh": 2,
      "name": "body_Material #27_0"
    }
  ],
  "samplers": [
    {
      "magFilter": 9729,
      "minFilter": 9987,
      "wrapS": 10497,
      "wrapT": 10497
    }
  ],
  "scene": 0,
  "scenes": [
    {
      "name": "OSG_Scene",
      "nodes": [
        0
      ]
    }
  ],
  "textures": [
    {
      "sampler": 0,
      "source": 0
    }
  ]
}

